<?xml version="1.0" encoding="utf-8"?>
<!-- Generator: Adobe Illustrator 18.0.0, SVG Export Plug-In . SVG Version: 6.00 Build 0)  -->
<!DOCTYPE svg PUBLIC "-//W3C//DTD SVG 1.1//EN" "http://www.w3.org/Graphics/SVG/1.1/DTD/svg11.dtd">
<svg version="1.1" id="Layer_1" xmlns="http://www.w3.org/2000/svg" xmlns:xlink="http://www.w3.org/1999/xlink" x="0px" y="0px"
	 viewBox="0 0 2000 2000" enable-background="new 0 0 2000 2000" xml:space="preserve">
<g>
	<g>
		<path fill="#FFFFFF" d="M1968,922.3L1245.8,200c-20.6-20.6-48.1-31.9-77.4-31.9c-29.3,0-56.8,11.3-77.4,31.9l-65.6,65.6
			c-20.6,20.6-32,48.1-32,77.4c0,29.3,11.3,57.7,32,78.3l421.4,422.3H108c-60.4,0-108,47.3-108,107.6v92.7
			c0,60.4,47.7,112.4,108,112.4h1343.5L1025.4,1581c-20.6,20.6-32,47.4-32,76.7c0,29.3,11.3,56.4,32,77l65.6,65.4
			c20.6,20.6,48.1,31.9,77.4,31.9c29.3,0,56.8-11.4,77.4-32l722.3-722.3c20.7-20.7,32-48.3,32-77.6
			C2000.1,970.6,1988.7,942.9,1968,922.3z"/>
	</g>
</g>
</svg>
