<?xml version="1.0" encoding="utf-8"?>
<!-- Generator: Adobe Illustrator 18.0.0, SVG Export Plug-In . SVG Version: 6.00 Build 0)  -->
<!DOCTYPE svg PUBLIC "-//W3C//DTD SVG 1.1//EN" "http://www.w3.org/Graphics/SVG/1.1/DTD/svg11.dtd">
<svg version="1.1" id="Layer_1" xmlns="http://www.w3.org/2000/svg" xmlns:xlink="http://www.w3.org/1999/xlink" x="0px" y="0px"
	 viewBox="0 0 2000 2000" enable-background="new 0 0 2000 2000" xml:space="preserve">
<g>
	<g>
		<path d="M333.8,54.7c-0.6,0-1-0.1-1.2-0.4c-0.3-0.3-0.4-0.7-0.4-1.1c0-0.5,0.1-0.9,0.4-1.1c0.3-0.3,0.7-0.4,1.3-0.4h8.3
			c0.6,0,1.1,0.1,1.3,0.4c0.3,0.3,0.4,0.7,0.4,1.1c0,0.5-0.1,0.9-0.4,1.1c-0.3,0.3-0.7,0.4-1.2,0.4H340v7.2c0,0.7-0.2,1.2-0.5,1.5
			c-0.3,0.4-0.8,0.6-1.4,0.6c-0.6,0-1.1-0.2-1.4-0.6c-0.3-0.4-0.5-0.9-0.5-1.5v-7.2H333.8z"/>
		<path d="M353.8,52.9c0.1-0.3,0.2-0.6,0.3-0.8c0.1-0.2,0.2-0.4,0.4-0.5c0.2-0.1,0.4-0.2,0.6-0.3c0.2-0.1,0.5-0.1,0.8-0.1h1.1
			c0.7,0,1.2,0.2,1.5,0.6c0.3,0.4,0.5,0.9,0.5,1.5v8.8c0,0.6-0.2,1-0.5,1.3c-0.3,0.3-0.7,0.4-1.3,0.4c-0.5,0-1-0.1-1.3-0.4
			c-0.3-0.3-0.5-0.7-0.5-1.3v-5.9h0l-1.8,6.6c-0.1,0.4-0.3,0.7-0.5,0.9c-0.2,0.2-0.6,0.2-1,0.2c-0.5,0-0.8-0.1-1-0.2
			c-0.2-0.2-0.4-0.4-0.5-0.9l-1.8-6.6h0v5.9c0,0.6-0.2,1-0.5,1.3c-0.3,0.3-0.7,0.4-1.3,0.4c-0.5,0-1-0.1-1.3-0.4
			c-0.3-0.3-0.5-0.7-0.5-1.3v-8.8c0-0.6,0.2-1.1,0.5-1.5c0.3-0.4,0.8-0.6,1.5-0.6h1.1c0.3,0,0.6,0,0.8,0.1c0.2,0.1,0.4,0.1,0.6,0.3
			c0.2,0.1,0.3,0.3,0.4,0.5c0.1,0.2,0.2,0.5,0.3,0.8l1.6,6h0L353.8,52.9z"/>
	</g>
	<g>
		<path d="M150.1,152.5c-1.1,0-2.2-0.2-3.3-0.5c-23.3-7.5-21.6-37.2-21.6-66c0-27.4,0.7-46.5-10-46.5c-10.7,0-12,18-12.1,40.3
			c-0.1,24.5-0.3,58.1-29.2,58.1c-7.8,0-14.3-2.5-19.1-7.4c-10-10.1-9.9-27-9.8-43.3c0.1-9.5,1.7-27.8-6.3-27.8
			c-4.4,0-7.1,2-8.4,19.1c-1,12.7-2.2,28.6-16.2,35c-5.3,2.5-11.7,0.2-14.2-5.2c-2.5-5.3-0.2-11.7,5.2-14.2
			C7.8,92.9,8.5,83.2,9,76.8c1.1-13.9,2.9-37.1,27.1-38.8c8.3-0.6,15,1.6,20.2,6.4C66.6,54.1,66.4,71,66.3,87.3
			c0,6.1-0.4,16,1.1,22.4c1,4.4,4.2,6.8,6.5,6.8c3.6,0,5.5-1.5,6.2-5.2c1.8-8.5,1.6-24.6,1.6-31.6c0.1-26.1,0.3-58.5,28.5-61.3
			c9.9-1,18,1.4,24.2,7.2c13.4,12.5,12.8,36.1,12,61.1c-0.5,17.9-1.6,40.9,6.9,45.1c5.3,2.6,8.7,7.8,6.9,13.4
			C158.8,149.6,154.6,152.5,150.1,152.5z"/>
	</g>
	<g>
		<path d="M179.7,127.5c-5.9,0-10.7-4.8-10.7-10.7V53.8c0-5.9,4.8-10.7,10.7-10.7c5.9,0,10.7,4.8,10.7,10.7v63.1
			C190.4,122.8,185.6,127.5,179.7,127.5z"/>
	</g>
	<g>
		<path d="M220.6,141.8c-5.9,0-10.7-4.8-10.7-10.7V28.8c0-5.9,4.8-10.7,10.7-10.7c5.9,0,10.7,4.8,10.7,10.7v102.3
			C231.2,137,226.5,141.8,220.6,141.8z"/>
	</g>
	<g>
		<path d="M302.3,127.5c-5.9,0-10.7-4.8-10.7-10.7V53.8c0-5.9,4.8-10.7,10.7-10.7c5.9,0,10.7,4.8,10.7,10.7v63.1
			C313,122.8,308.2,127.5,302.3,127.5z"/>
	</g>
	<g>
		<path d="M261.5,141.8c-5.9,0-10.7-4.8-10.7-10.7V28.8c0-5.9,4.8-10.7,10.7-10.7c5.9,0,10.7,4.8,10.7,10.7v102.3
			C272.1,137,267.4,141.8,261.5,141.8z"/>
	</g>
</g>
</svg>
